# xmcd
#
# Track frame offsets:
#	150
#	13820
#	26409
#	43667
#	66338
#	88205
#	111093
#	132744
#	165056
#
# Disc length: 3468 seconds
#
# Revision: 0
# Processed by: cddbd v1.5.2PL0 Copyright (c) Steve Scherf et al.
# Submitted via: EasyCDDAExtractor 10.0.3.1
#
DISCID=740d8a09
DTITLE=K.A.S.A - SINGLE
DYEAR=1900
DGENRE=
TTITLE0=One Lecą Na Kasę - RADIO CUT
TTITLE1=KasMan - BY K.A.S.A.
TTITLE2=KasMan - BY SPARKY
TTITLE3=KasMan - BY KADUBRA
TTITLE4=KasMan - BY MAKARUK
TTITLE5=KasMan - BY GROOVE HQ
TTITLE6=KasMan - BY GROOVE HQ
TTITLE7=Dżu-Dżu - BY GROOVE HQ
TTITLE8=DATA
EXTD=
EXTT0=
EXTT1=
EXTT2=
EXTT3=
EXTT4=
EXTT5=
EXTT6=
EXTT7=
EXTT8=
PLAYORDER=
